<svg width="64" height="64" viewBox="0 0 64 64" fill="none" xmlns="http://www.w3.org/2000/svg">
  <rect width="64" height="64" rx="16" fill="#141015"/>
  <path d="M26.5 49C25.9 49 25.4 48.8 24.9 48.3L16.7 40.7C15.8 39.9 15.3 38.8 15.3 37.6C15.3 35.2 17.2 33.3 19.6 33.3C20.8 33.3 22 33.8 22.8 34.7L26 37.7L40.1 23.6C41 22.7 42.2 22.2 43.5 22.2C46.1 22.2 48.2 24.3 48.2 26.9C48.2 28.2 47.7 29.4 46.8 30.3L29.9 47.6C29 48.5 27.8 49 26.5 49Z" fill="#F4EEE8"/>
  <path d="M20.4 18.2H43.6" stroke="#D11F46" stroke-width="4" stroke-linecap="square"/>
</svg>
